<?xml version="1.0" encoding="utf-8"?>
<!-- Generator: Adobe Illustrator 16.2.0, SVG Export Plug-In . SVG Version: 6.00 Build 0)  -->
<!DOCTYPE svg PUBLIC "-//W3C//DTD SVG 1.1//EN" "http://www.w3.org/Graphics/SVG/1.1/DTD/svg11.dtd">
<svg version="1.1" id="Слой_1" xmlns="http://www.w3.org/2000/svg" xmlns:xlink="http://www.w3.org/1999/xlink" x="0px" y="0px"
	 width="574px" height="379.908px" viewBox="0 0 574 379.908" enable-background="new 0 0 574 379.908" xml:space="preserve">
<g>
	<defs>
		<path id="SVGID_1_" d="M129.636,215.815h297.906l-121.729-54.241l-0.928,40.01c0,0-7.995-11.296-22.583-18.826
			c-14.589-7.536-31.057-5.184-31.057-5.184l29.177-25.41l-150.786-67.46V215.815z"/>
	</defs>
	<clipPath id="SVGID_2_">
		<use xlink:href="#SVGID_1_"  overflow="visible"/>
	</clipPath>
	
		<linearGradient id="SVGID_3_" gradientUnits="userSpaceOnUse" x1="-517.9998" y1="5203.9082" x2="-516.9998" y2="5203.9082" gradientTransform="matrix(297.9064 0 0 -297.9064 154445.125 1550427.5)">
		<stop  offset="0" style="stop-color:#E30613"/>
		<stop  offset="0.6303" style="stop-color:#E30613"/>
		<stop  offset="1" style="stop-color:#F39B9B"/>
	</linearGradient>
	<rect x="129.636" y="84.705" clip-path="url(#SVGID_2_)" fill="url(#SVGID_3_)" width="297.906" height="131.111"/>
</g>
<g>
	<defs>
		<path id="SVGID_4_" d="M143.681,0c0.929,0.403,1.893,0.785,2.92,1.205c23.547,9.406,49.409,12.71,72.004,13.649
			c22.593,0.928,32.961,7.982,41.894,17.867c8.96,9.899,18.35,12.257,28.708,8.006c10.355-4.224,13.648-8.947,13.648-8.947
			s-2.824,10.84,2.834,20.252c5.643,9.416,11.755,9.416,21.161,10.355c9.414,0.941,34.621,3.534,49.42,20.714
			c19.178,22.173,36.226,36.997,70.911,49.495V0H143.681z"/>
	</defs>
	<clipPath id="SVGID_5_">
		<use xlink:href="#SVGID_4_"  overflow="visible"/>
	</clipPath>
	
		<linearGradient id="SVGID_6_" gradientUnits="userSpaceOnUse" x1="-518" y1="5203.9082" x2="-517" y2="5203.9082" gradientTransform="matrix(303.4983 0 0 -303.4983 157355.7188 1579443.5)">
		<stop  offset="0" style="stop-color:#DADADA"/>
		<stop  offset="1" style="stop-color:#EDEDED"/>
	</linearGradient>
	<rect x="143.681" y="0.001" clip-path="url(#SVGID_5_)" fill="url(#SVGID_6_)" width="303.5" height="132.596"/>
</g>
<g>
	<defs>
		<path id="SVGID_7_" d="M129.636,77.008c4.975,0.803,6.695,4.719,27.47,13.029c23.536,9.421,49.421,12.695,72.016,13.653
			c22.593,0.941,32.938,8.012,41.884,17.881c8.945,9.879,18.374,12.237,28.716,7.999c10.347-4.226,13.663-8.938,13.663-8.938
			s-2.847,10.818,2.798,20.223c5.654,9.41,11.779,9.41,21.184,10.368c9.414,0.941,34.359,3.769,49.42,20.696
			c15.046,16.958,26.848,36.175,43.292,40.012c4.666,1.086,7.34,2.497,8.8,3.884h8.302v-75.993L295.332,72.74l-0.954,40.001
			c0,0-7.993-11.296-22.593-18.826c-14.577-7.523-31.057-5.177-31.057-5.177l29.177-25.41L129.636,0.576V77.008z"/>
	</defs>
	<clipPath id="SVGID_8_">
		<use xlink:href="#SVGID_7_"  overflow="visible"/>
	</clipPath>
	
		<linearGradient id="SVGID_9_" gradientUnits="userSpaceOnUse" x1="-517.9998" y1="5203.9082" x2="-516.9998" y2="5203.9082" gradientTransform="matrix(317.5436 0 0 -317.5436 164617.2031 1652575.75)">
		<stop  offset="0" style="stop-color:#3363AC"/>
		<stop  offset="0.6061" style="stop-color:#3363AC"/>
		<stop  offset="1" style="stop-color:#8AB5E1"/>
	</linearGradient>
	<rect x="129.636" y="0.577" clip-path="url(#SVGID_8_)" fill="url(#SVGID_9_)" width="317.545" height="215.239"/>
</g>
<g>
	<defs>
		<polyline id="SVGID_10_" points="-518,5203.908 -518,-465.382 7985.94,-465.382 		"/>
	</defs>
	<clipPath id="SVGID_11_">
		<use xlink:href="#SVGID_10_"  overflow="visible"/>
	</clipPath>
	<path clip-path="url(#SVGID_11_)" fill="#FFFFFF" d="M240.728,88.737c0,0,16.481-2.344,31.058,5.179
		c14.6,7.529,22.593,18.825,22.593,18.825l0.954-40.002l151.847,67.082v-7.226c-34.683-12.496-51.732-27.321-70.911-49.493
		c-14.798-17.182-40.005-19.774-49.42-20.715c-9.404-0.94-15.516-0.94-21.159-10.356c-5.657-9.411-2.836-20.25-2.836-20.25
		s-3.291,4.722-13.647,8.947c-10.357,4.25-19.747,1.892-28.707-8.006c-8.934-9.886-19.302-16.94-41.895-17.868
		c-22.596-0.939-48.456-4.243-72.003-13.648c-1.027-0.421-1.992-0.803-2.92-1.205h-14.045v0.575l140.268,62.752L240.728,88.737z"/>
	<path clip-path="url(#SVGID_11_)" fill="#FFFFFF" d="M304.885,201.583l0.928-40.009l121.729,54.24h11.337
		c-1.46-1.387-4.135-2.796-8.799-3.884c-16.444-3.837-28.247-23.054-43.294-40.012c-15.06-16.926-40.005-19.753-49.42-20.694
		c-9.404-0.96-15.53-0.96-21.184-10.369c-5.643-9.405-2.796-20.225-2.796-20.225s-3.317,4.715-13.663,8.939
		c-10.343,4.238-19.772,1.881-28.717-7.998c-8.947-9.869-19.291-16.939-41.884-17.881c-22.596-0.959-48.482-4.232-72.016-13.653
		c-20.775-8.31-22.495-12.225-27.47-13.03v7.697l150.786,67.461l-29.177,25.409c0,0,16.468-2.352,31.058,5.184
		C296.89,190.287,304.885,201.583,304.885,201.583"/>
	<path clip-path="url(#SVGID_11_)" d="M18.604,320.025v3.586h-4.846v-3.586c-8.029-0.174-12.607-5.333-12.607-13.266
		c0-7.944,4.937-12.695,12.607-12.917v-2.599h4.846v2.599c7.665,0.222,12.602,4.973,12.602,12.917
		C31.205,314.692,26.627,319.851,18.604,320.025 M13.757,298.186c-5.295,0.134-7.758,3.451-7.758,8.748
		c0,5.195,2.6,8.61,7.758,8.785V298.186z M18.604,298.186v17.533c5.109-0.175,7.758-3.59,7.758-8.785
		C26.361,301.637,23.893,298.32,18.604,298.186"/>
	<polygon clip-path="url(#SVGID_11_)" points="37.583,323.389 37.583,291.465 58.037,291.465 58.037,295.808 42.429,295.808 
		42.429,305.139 55.707,305.139 55.707,309.446 42.429,309.446 42.429,319.046 58.037,319.046 58.037,323.389 	"/>
	<path clip-path="url(#SVGID_11_)" d="M85.823,331.023v-7.634H66.446v7.634H61.73v-11.977h3.186
		c2.736-6.644,3.768-12.509,3.768-25.648v-1.933h18.121v27.581h3.768v11.977H85.823z M81.962,295.808H73.35v1.573
		c0,11.038-1.212,15.701-3.453,21.665h12.065V295.808z"/>
	<polygon clip-path="url(#SVGID_11_)" points="96.234,323.389 96.234,291.465 116.688,291.465 116.688,295.808 101.08,295.808 
		101.08,305.139 114.355,305.139 114.355,309.446 101.08,309.446 101.08,319.046 116.688,319.046 116.688,323.389 	"/>
	<path clip-path="url(#SVGID_11_)" d="M135.366,310.843h-7.271v12.546h-4.843v-31.924h12.113c6.051,0,10.227,3.935,10.227,9.676
		C145.593,306.883,141.417,310.843,135.366,310.843 M135.05,295.808h-6.954v10.677h6.954c3.497,0,5.699-2.064,5.699-5.344
		C140.749,297.825,138.547,295.808,135.05,295.808"/>
	<path clip-path="url(#SVGID_11_)" d="M169.833,323.388l-2.246-6.407h-12.604l-2.244,6.407h-5.111l11.706-31.923h3.903
		l11.662,31.923H169.833z M161.4,298.68l-5.024,14.166h9.912L161.4,298.68z"/>
	<path clip-path="url(#SVGID_11_)" d="M197.208,323.389v-27.581h-8.877l-0.452,13.824c-0.309,9.775-3.409,13.757-9.509,13.757
		h-2.419v-4.343h1.119c3.41,0,5.741-1.744,5.966-10.048l0.495-17.533h18.523v31.924H197.208z"/>
	<path clip-path="url(#SVGID_11_)" d="M222.661,323.389h-12.248v-31.924h4.844v12.549h7.404c6.1,0,10.134,3.958,10.134,9.698
		C232.795,319.454,228.712,323.389,222.661,323.389 M222.254,308.368h-6.997v10.678h6.997c3.544,0,5.654-2.017,5.654-5.334
		C227.908,310.436,225.798,308.368,222.254,308.368"/>
	<polygon clip-path="url(#SVGID_11_)" points="256.362,323.389 256.362,309.446 243.444,309.446 243.444,323.389 238.598,323.389 
		238.598,291.465 243.444,291.465 243.444,305.139 256.362,305.139 256.362,291.465 261.255,291.465 261.255,323.389 	"/>
	<path clip-path="url(#SVGID_11_)" d="M288.267,320.258c-2.203,2.243-5.073,3.404-8.432,3.404c-3.324,0-6.194-1.161-8.39-3.404
		c-3.136-3.178-3.094-7.67-3.094-12.607v-1.707c0-5.246,0.402-8.65,3.094-11.348c2.196-2.188,5.117-3.4,8.39-3.4
		c3.315,0,6.229,1.212,8.432,3.4c2.462,2.512,3.094,6.05,3.094,10.594v2.239C291.36,312.897,291.402,317.029,288.267,320.258
		 M284.585,297.516c-1.256-1.3-2.914-1.966-4.751-1.966c-1.795,0-3.502,0.666-4.758,1.966c-1.881,1.969-1.839,5.286-1.839,9.691
		c0,4.081-0.222,8.067,1.839,10.132c1.299,1.299,2.92,1.969,4.758,1.969c1.881,0,3.544-0.67,4.751-1.969
		c1.887-1.967,1.887-4.802,1.887-10.234C286.473,302.266,286.38,299.398,284.585,297.516"/>
	<polygon clip-path="url(#SVGID_11_)" points="298.507,323.389 298.507,291.465 318.967,291.465 318.967,295.808 303.349,295.808 
		303.349,305.139 316.626,305.139 316.626,309.446 303.349,309.446 303.349,319.046 318.967,319.046 318.967,323.389 	"/>
	<path clip-path="url(#SVGID_11_)" d="M354.678,323.388l-2.254-6.407h-12.596l-2.253,6.407h-5.108l11.704-31.923h3.899
		l11.668,31.923H354.678z M346.238,298.68l-5.024,14.166h9.909L346.238,298.68z"/>
	<polygon clip-path="url(#SVGID_11_)" points="369.353,295.808 369.353,323.389 364.513,323.389 364.513,291.465 384.151,291.465 
		384.151,295.808 	"/>
	<polygon clip-path="url(#SVGID_11_)" points="389.594,323.389 389.594,291.465 410.061,291.465 410.061,295.808 394.443,295.808 
		394.443,305.139 407.72,305.139 407.72,309.446 394.443,309.446 394.443,319.046 410.061,319.046 410.061,323.389 	"/>
	<polygon clip-path="url(#SVGID_11_)" points="434.387,323.389 434.387,309.446 421.467,309.446 421.467,323.389 416.617,323.389 
		416.617,291.465 421.467,291.465 421.467,305.139 434.387,305.139 434.387,291.465 439.272,291.465 439.272,323.389 	"/>
	<polygon clip-path="url(#SVGID_11_)" points="458.342,295.808 458.342,323.389 453.503,323.389 453.503,295.808 444.704,295.808 
		444.704,291.465 467.141,291.465 467.141,295.808 	"/>
	<path clip-path="url(#SVGID_11_)" d="M487.743,322.77c-1.387,0.583-2.923,0.892-4.703,0.892c-3.365,0-6.288-1.162-8.49-3.404
		c-3.179-3.178-3.091-7.583-3.091-12.829c-0.036-0.222-0.036-1.115,0-1.3c0-5.88,0.444-8.836,3.091-11.533
		c2.202-2.188,5.125-3.401,8.438-3.401c1.832,0,3.368,0.306,4.755,0.889c1.482,0.633,2.508,1.387,4.132,2.872l-3.229,3.276
		c-1.893-1.842-3.28-2.682-5.658-2.682c-1.878,0-3.538,0.666-4.75,1.918c-1.843,1.981-1.879,5.381-1.879,9.513v1.438
		c0,5.468,0.346,7.35,1.879,8.97c1.212,1.3,2.821,1.919,4.75,1.919c2.378,0,3.765-0.841,5.658-2.687l3.229,3.28
		C490.251,321.386,489.225,322.14,487.743,322.77"/>
	<polygon clip-path="url(#SVGID_11_)" points="509.16,295.808 509.16,323.389 504.312,323.389 504.312,295.808 495.522,295.808 
		495.522,291.465 517.944,291.465 517.944,295.808 	"/>
	<path clip-path="url(#SVGID_11_)" d="M536.359,323.389h-12.92v-31.924h12.425c5.825,0,9.636,3.404,9.636,8.613
		c0,3.219-1.47,5.556-4.306,6.954c3.145,1.471,4.802,3.76,4.802,7.401C545.996,319.949,542.322,323.389,536.359,323.389
		 M535.452,295.809h-7.175v9.145h7.175c3.244,0,5.21-1.697,5.21-4.565C540.662,297.515,538.696,295.809,535.452,295.809
		 M535.864,309.307h-7.587v9.739h7.587c3.229,0,5.257-1.893,5.257-4.886C541.121,311.189,539.093,309.307,535.864,309.307"/>
	<path clip-path="url(#SVGID_11_)" d="M571.905,320.258c-2.203,2.243-5.071,3.404-8.439,3.404c-3.317,0-6.185-1.161-8.388-3.404
		c-3.142-3.178-3.094-7.67-3.094-12.607v-1.707c0-5.246,0.396-8.65,3.094-11.348c2.203-2.188,5.112-3.4,8.388-3.4
		c3.317,0,6.236,1.212,8.439,3.4c2.465,2.512,3.094,6.05,3.094,10.594v2.239C575,312.897,575.036,317.029,571.905,320.258
		 M568.217,297.516c-1.26-1.3-2.92-1.966-4.751-1.966c-1.795,0-3.502,0.666-4.751,1.966c-1.878,1.969-1.842,5.286-1.842,9.691
		c0,4.081-0.222,8.067,1.842,10.132c1.3,1.299,2.909,1.969,4.751,1.969c1.882,0,3.539-0.67,4.751-1.969
		c1.882-1.967,1.882-4.802,1.882-10.234C570.1,302.266,570.012,299.398,568.217,297.516"/>
	<polygon clip-path="url(#SVGID_11_)" points="175.792,378.154 175.792,350.573 162.873,350.573 162.873,378.154 158.029,378.154 
		158.029,346.23 180.635,346.23 180.635,378.154 	"/>
	<path clip-path="url(#SVGID_11_)" d="M207.696,375.026c-2.196,2.239-5.066,3.4-8.432,3.4c-3.322,0-6.193-1.161-8.39-3.4
		c-3.143-3.182-3.092-7.674-3.092-12.611v-1.707c0-5.246,0.402-8.65,3.092-11.348c2.197-2.188,5.11-3.4,8.39-3.4
		c3.316,0,6.236,1.212,8.432,3.4c2.47,2.512,3.094,6.051,3.094,10.594v2.239C210.79,367.662,210.833,371.793,207.696,375.026
		 M204.015,352.28c-1.256-1.296-2.914-1.966-4.751-1.966c-1.795,0-3.502,0.67-4.758,1.966c-1.881,1.969-1.837,5.286-1.837,9.691
		c0,4.081-0.224,8.068,1.837,10.132c1.305,1.299,2.914,1.969,4.758,1.969c1.881,0,3.539-0.67,4.751-1.969
		c1.887-1.966,1.887-4.799,1.887-10.23C205.902,357.035,205.81,354.163,204.015,352.28"/>
	<polygon clip-path="url(#SVGID_11_)" points="239.503,350.573 239.503,378.154 234.652,378.154 234.652,350.573 225.867,350.573 
		225.867,346.23 248.288,346.23 248.288,350.573 	"/>
	<path clip-path="url(#SVGID_11_)" d="M263.205,372.958c-1.256,2.92-3.273,5.195-6.731,5.195h-3.317v-4.343h2.283
		c1.931,0,3.007-0.852,3.724-2.56l1.127-2.599l-10.363-22.422h5.11l7.628,17.078l6.861-17.078h5.117L263.205,372.958z"/>
	<path clip-path="url(#SVGID_11_)" d="M291.167,365.609H283.9v12.545h-4.846V346.23h12.114c6.058,0,10.226,3.935,10.226,9.676
		C301.394,361.648,297.226,365.609,291.167,365.609 M290.853,350.573H283.9v10.682h6.953c3.5,0,5.699-2.068,5.699-5.349
		C296.552,352.59,294.353,350.573,290.853,350.573"/>
	<polygon clip-path="url(#SVGID_11_)" points="325.946,378.154 325.946,354.967 311.639,378.154 307.237,378.154 307.237,346.23 
		312.086,346.23 312.086,369.369 326.354,346.23 330.795,346.23 330.795,378.154 	"/>
	<path clip-path="url(#SVGID_11_)" d="M347.487,378.427c-4.616,0-7.933-0.939-11.296-4.205l3.178-3.243
		c2.414,2.253,4.751,3.094,8.031,3.094c3.316,0,6.014-1.882,6.014-5.061c0-3.367-2.152-5.162-5.654-5.162h-3.826v-4.034h3.91
		c3.233,0,5.111-1.791,5.111-4.885c0-3.007-2.373-4.715-5.504-4.715c-2.796,0-5.075,0.667-7.14,2.512l-3.006-3.094
		c3.006-2.647,6.283-3.674,10.317-3.674c5.741,0,10.186,3.364,10.186,8.661c0,3.266-1.573,5.69-4.394,7.027
		c3.095,1.263,4.875,3.775,4.875,7.499C358.289,374.79,353.585,378.427,347.487,378.427"/>
	<polygon clip-path="url(#SVGID_11_)" points="388.778,378.154 388.778,356.809 381.413,372.377 377.827,372.377 370.342,356.809 
		370.342,378.154 365.489,378.154 365.489,346.23 370.291,346.23 379.622,366.104 388.814,346.23 393.653,346.23 393.653,378.154 	
		"/>
	<path clip-path="url(#SVGID_11_)" d="M411.346,372.958c-1.26,2.92-3.276,5.195-6.731,5.195h-3.317v-4.343h2.279
		c1.93,0,3.007-0.852,3.725-2.56l1.124-2.599l-10.368-22.422h5.122l7.624,17.078l6.855-17.078h5.122L411.346,372.958z"/>
</g>
</svg>
